# xmcd
#
# Track frame offsets:
#	150
#	20176
#	23065
#	29633
#	35049
#	48948
#	70801
#	84931
#	97372
#	109874
#	120618
#	125630
#	130685
#	144357
#	155635
#	166796
#	182311
#	191141
#	197833
#	214508
#	228117
#	252733
#	254457
#	274872
#	288427
#	296461
#	308371
#	314098
#	319938
#
# Disc length: 4509 seconds
#
# Revision: 1
# Processed by: cddbd v1.5.2PL0 Copyright (c) Steve Scherf et al.
# Submitted via: EasyCDDAExtractor 16.0.8.2
#
DISCID=b1119b1d
DTITLE=Μοσχολιού Βίκυ - Ανοιχτό βιβλίο-Β. Μοσχολιού
DYEAR=2002
DGENRE=Ποικίλη
TTITLE0=Μοσχολιού Βίκυ - Άνθρωποι μονάχοι
TTITLE1=Μοσχολιού Βίκυ - Ομιλία Βίκυς Μοσχολιού 1
TTITLE2=Μοσχολιού Βίκυ - Πήρα απ' τη νιότη χρώματα
TTITLE3=Μοσχολιού Βίκυ - Πάει, πάει
TTITLE4=Μοσχολιού Βίκυ - Τι να φταίει
TTITLE5=Μοσχολιού Βίκυ - Τι έχει και κλαίει το παιδί
TTITLE6=Μοσχολιού Βίκυ - Ξύπνησε η πόλη (Κίτρινο φως)
TTITLE7=Μοσχολιού Βίκυ - Ο Λευτέρης
TTITLE8=Μοσχολιού Βίκυ - Τα τραίνα που φύγαν
TTITLE9=Μοσχολιού Βίκυ - Θα κλείσω τα μάτια
TTITLE10=Μοσχολιού Βίκυ - Δεν κλαίω για τώρα
TTITLE11=Μοσχολιού Βίκυ - Ξενύχτησα στην πόρτα σου
TTITLE12=Μοσχολιού Βίκυ - Αλήτη
TTITLE13=Μοσχολιού Βίκυ-Γεδερμετζόγλου Γιώργος - Επεμβαίνεις
TTITLE14=Μοσχολιού Βίκυ - Έτσι είναι η ζωή
TTITLE15=Μοσχολιού Βίκυ - Κάτω απ' τη μαρκίζα
TTITLE16=Μοσχολιού Βίκυ - Ξημερώματα
TTITLE17=Μοσχολιού Βίκυ - Δεν ξέρω πόσο σ' αγαπώ
TTITLE18=Μοσχολιού Βίκυ - Το δίχτυ
TTITLE19=Μοσχολιού Βίκυ - Στου Θωμά
TTITLE20=Μοσχολιού Βίκυ-Καραμούτας Νίκος - Μάννα μου, Ελλάς
TTITLE21=Μοσχολιού Βίκυ - Ομιλία Βίκυς Μοσχολιού 2
TTITLE22=Μοσχολιού Βίκυ - Χάθηκε το φεγγάρι
TTITLE23=Μοσχολιού Βίκυ - Παραπονεμένα λόγια
TTITLE24=Μοσχολιού Βίκυ - Δειλινά
TTITLE25=Μοσχολιού Βίκυ - Ο χωρισμός
TTITLE26=Μοσχολιού Βίκυ - Σ' έβλεπα στα μάτια
TTITLE27=Μοσχολιού Βίκυ - Και γεια χαρά
TTITLE28=Μοσχολιού Βίκυ - Συννεφιασμένη Κυριακή
EXTD=
EXTT0=
EXTT1=
EXTT2=
EXTT3=
EXTT4=
EXTT5=
EXTT6=
EXTT7=
EXTT8=
EXTT9=
EXTT10=
EXTT11=
EXTT12=
EXTT13=
EXTT14=
EXTT15=
EXTT16=
EXTT17=
EXTT18=
EXTT19=
EXTT20=
EXTT21=
EXTT22=
EXTT23=
EXTT24=
EXTT25=
EXTT26=
EXTT27=
EXTT28=
PLAYORDER=
